<svg xmlns="http://www.w3.org/2000/svg" viewBox="0 36 460 179" role="img"><style>.i{stroke:var(--ink,#000);fill:none}.g{stroke:var(--g,#777);fill:none}.p{stroke:var(--paper,#fff);fill:none}.f{fill:var(--ink,#000)}.pf{fill:var(--paper,#fff)}.i.pf{fill:var(--paper,#fff)}.f.p{fill:var(--ink,#000);stroke:var(--paper,#fff)}text{font:700 15px 'IBM Plex Mono',monospace;fill:var(--ink,#000)}g{stroke-linecap:round;stroke-linejoin:round}</style><rect y="36" width="460" height="179" class="pf" style="fill:var(--paper,#fff)"/><g transform="translate(0,0)"><path d="M94,116 L126,116" class="i" stroke-width="8"/><path d="M70,48 L70,48" class="i" stroke-width="0"/><path d="M94,116 L126,116" class="i" stroke-width="8"/><path d="M70,48 L70,48" class="i" stroke-width="0"/><path d="M96,130 L124,130" class="i" stroke-width="11"/><circle cx="110" cy="150" r="10.5" class="f"/><path d="M96,130 L103,102 L95,76" class="g" stroke-width="8"/><path d="M124,130 L117,102 L125,76" class="i" stroke-width="8"/><text x="70" y="62" stroke="none" style="font-size:11px;letter-spacing:.08em">TOP VIEW</text><text x="12" y="209" stroke="none">1</text></g><g transform="translate(230,0)"><path d="M94,116 L126,116" class="i" stroke-width="8"/><path d="M70,48 L70,48" class="i" stroke-width="0"/><path d="M94,116 L126,116" class="i" stroke-width="8"/><path d="M70,48 L70,48" class="i" stroke-width="0"/><path d="M96,130 L124,130" class="i" stroke-width="11"/><circle cx="110" cy="150" r="10.5" class="f"/><path d="M96,130 L67,135 L41,142" class="g" stroke-width="8"/><path d="M124,130 L153,135 L179,142" class="i" stroke-width="8"/><text x="70" y="62" stroke="none" style="font-size:11px;letter-spacing:.08em">TOP VIEW</text><text x="12" y="209" stroke="none">2</text></g><path d="M230,44 L230,201" class="i" stroke-width="1" stroke-dasharray="2 4"/></svg>