<svg xmlns="http://www.w3.org/2000/svg" viewBox="0 19 460 196" role="img"><style>.i{stroke:var(--ink,#000);fill:none}.g{stroke:var(--g,#777);fill:none}.p{stroke:var(--paper,#fff);fill:none}.f{fill:var(--ink,#000)}.pf{fill:var(--paper,#fff)}.i.pf{fill:var(--paper,#fff)}.f.p{fill:var(--ink,#000);stroke:var(--paper,#fff)}text{font:700 15px 'IBM Plex Mono',monospace;fill:var(--ink,#000)}g{stroke-linecap:round;stroke-linejoin:round}</style><rect y="19" width="460" height="196" class="pf" style="fill:var(--paper,#fff)"/><g transform="translate(0,0)"><path d="M8,196 L222,196" class="i" stroke-width="2"/><path d="M76,160 L116,160" class="i" stroke-width="8"/><path d="M96,162 L96,196" class="i" stroke-width="4"/><path d="M82,150 L70,92" class="i" stroke-width="8"/><path d="M40,36 L40,196" class="i" stroke-width="4"/><circle cx="40" cy="36" r="5" class="i pf" stroke-width="3"/><path d="M40,36 L94,99" class="i" stroke-width="4"/><path d="M96,146 L138,150 L140,190 L154,190" class="g" stroke-width="9"/><path d="M86,97 L92,125 L94,99" class="g" stroke-width="8"/><path d="M96,146 L86,97" class="i" stroke-width="13"/><circle cx="81" cy="78" r="10.5" class="f"/><path d="M96,146 L138,150 L142,190 L156,190" class="p" stroke-width="13"/><path d="M86,97 L92,125 L94,99" class="p" stroke-width="12"/><path d="M96,146 L138,150 L142,190 L156,190" class="i" stroke-width="9"/><path d="M86,97 L92,125 L94,99" class="i" stroke-width="8"/><text x="12" y="209" stroke="none">1</text></g><g transform="translate(230,0)"><path d="M8,196 L222,196" class="i" stroke-width="2"/><path d="M76,160 L116,160" class="i" stroke-width="8"/><path d="M96,162 L96,196" class="i" stroke-width="4"/><path d="M82,150 L70,92" class="i" stroke-width="8"/><path d="M40,36 L40,196" class="i" stroke-width="4"/><circle cx="40" cy="36" r="5" class="i pf" stroke-width="3"/><path d="M40,36 L80,41" class="i" stroke-width="4"/><path d="M96,146 L138,150 L140,190 L154,190" class="g" stroke-width="9"/><path d="M86,97 L82,68 L80,41" class="g" stroke-width="8"/><path d="M96,146 L86,97" class="i" stroke-width="13"/><circle cx="81" cy="78" r="10.5" class="f"/><path d="M96,146 L138,150 L142,190 L156,190" class="p" stroke-width="13"/><path d="M86,97 L82,68 L80,41" class="p" stroke-width="12"/><path d="M96,146 L138,150 L142,190 L156,190" class="i" stroke-width="9"/><path d="M86,97 L82,68 L80,41" class="i" stroke-width="8"/><text x="12" y="209" stroke="none">2</text></g><path d="M230,27 L230,201" class="i" stroke-width="1" stroke-dasharray="2 4"/></svg>